<?xml version="1.0" encoding="utf-8"?>
<!-- Generator: Adobe Illustrator 24.0.1, SVG Export Plug-In . SVG Version: 6.00 Build 0)  -->
<svg version="1.1" id="Capa_1" xmlns="http://www.w3.org/2000/svg" xmlns:xlink="http://www.w3.org/1999/xlink" x="0px" y="0px"
	 viewBox="0 0 512 170.4" style="enable-background:new 0 0 512 170.4;" xml:space="preserve">
<style type="text/css">
	.st0{fill:#004D71;}
</style>
<g>
	<path class="st0" d="M78.7,127.7h-8.8v17.1c0,2,0.4,3.4,1.1,4.3c0.7,0.9,1.9,1.3,3.5,1.3c0.6,0,1.2-0.1,1.9-0.2
		c0.7-0.1,1.3-0.3,1.9-0.6l0.2,5.3c-0.8,0.3-1.7,0.5-2.6,0.7c-1,0.2-1.9,0.2-3,0.2c-3.1,0-5.5-0.9-7.1-2.6c-1.6-1.7-2.5-4.3-2.5-7.7
		v-17.9h-6.3v-5.3h6.3v-9.4h6.5v9.4h8.8V127.7z"/>
	<path class="st0" d="M115.2,138.6v1.1c0,0.4,0,0.7-0.1,1.1H89c0,1.4,0.4,2.7,0.9,3.9c0.6,1.2,1.4,2.3,2.3,3.2
		c1,0.9,2.1,1.6,3.4,2.1c1.3,0.5,2.6,0.8,4.1,0.8c2.2,0,4.1-0.5,5.8-1.5c1.6-1,2.9-2.2,3.8-3.5l4.6,3.7c-1.8,2.3-3.8,4.1-6.2,5.2
		c-2.4,1.1-5,1.7-8,1.7c-2.5,0-4.8-0.4-6.9-1.2c-2.1-0.8-4-2-5.5-3.5c-1.5-1.5-2.7-3.3-3.6-5.5c-0.9-2.1-1.3-4.5-1.3-7.1
		c0-2.5,0.4-4.9,1.3-7.1c0.9-2.2,2.1-4,3.6-5.5c1.5-1.5,3.3-2.7,5.4-3.6c2.1-0.9,4.3-1.3,6.8-1.3c2.4,0,4.6,0.4,6.6,1.2
		c2,0.8,3.6,1.9,5,3.4c1.4,1.5,2.4,3.3,3.2,5.4C114.8,133.5,115.2,135.9,115.2,138.6 M108.5,135.9c0-1.3-0.3-2.5-0.7-3.6
		c-0.4-1.1-1-2.1-1.7-3c-0.8-0.8-1.7-1.5-2.8-2c-1.1-0.5-2.5-0.7-4-0.7c-1.4,0-2.7,0.2-3.9,0.7c-1.2,0.5-2.3,1.1-3.2,2
		c-0.9,0.8-1.6,1.8-2.2,3c-0.6,1.1-0.9,2.4-1,3.6H108.5z"/>
	<path class="st0" d="M143.8,134c0-2.5-0.7-4.3-2.2-5.5c-1.5-1.2-3.4-1.8-5.9-1.8c-1.9,0-3.6,0.4-5.2,1.1c-1.6,0.7-3,1.6-4.1,2.7
		l-3.5-4.2c1.6-1.5,3.6-2.7,5.9-3.6c2.3-0.9,4.8-1.3,7.5-1.3c2.4,0,4.4,0.3,6.1,1c1.7,0.7,3.2,1.6,4.3,2.7c1.1,1.2,1.9,2.5,2.5,4.1
		c0.6,1.6,0.8,3.3,0.8,5.1v14.4c0,1.1,0,2.3,0.1,3.5c0.1,1.2,0.2,2.2,0.4,3h-5.9c-0.4-1.6-0.6-3.1-0.6-4.7h-0.2
		c-1.2,1.8-2.7,3.1-4.6,4.1c-1.8,1-4,1.5-6.5,1.5c-1.3,0-2.7-0.2-4.1-0.5c-1.4-0.3-2.7-0.9-3.9-1.7c-1.2-0.8-2.1-1.8-2.9-3.1
		c-0.8-1.3-1.1-2.9-1.1-4.8c0-2.5,0.7-4.5,2-5.9c1.3-1.5,3.1-2.6,5.3-3.3c2.2-0.8,4.6-1.3,7.4-1.5c2.7-0.2,5.5-0.3,8.3-0.3V134z
		 M142.2,139.6c-1.6,0-3.3,0.1-5,0.2c-1.7,0.1-3.3,0.4-4.7,0.8c-1.4,0.4-2.6,1-3.5,1.9c-0.9,0.8-1.4,1.9-1.4,3.3
		c0,1,0.2,1.8,0.6,2.4c0.4,0.7,0.9,1.2,1.6,1.6c0.6,0.4,1.4,0.7,2.2,0.9c0.8,0.2,1.6,0.2,2.4,0.2c3.1,0,5.4-0.9,7.1-2.7
		c1.6-1.8,2.5-4.1,2.5-6.9v-1.7H142.2z"/>
	<path class="st0" d="M183.1,130.7c-0.7-1.1-1.7-2-3.1-2.7c-1.4-0.7-2.9-1.1-4.4-1.1c-1.7,0-3.2,0.3-4.6,1c-1.3,0.6-2.4,1.5-3.4,2.6
		c-0.9,1.1-1.6,2.4-2.1,3.8c-0.5,1.4-0.7,2.9-0.7,4.5c0,1.6,0.2,3.1,0.7,4.5c0.5,1.4,1.2,2.7,2.1,3.8c0.9,1.1,2.1,2,3.4,2.6
		c1.3,0.6,2.9,1,4.6,1c1.7,0,3.2-0.3,4.6-1c1.4-0.6,2.5-1.5,3.4-2.6l4.4,4c-1.4,1.6-3.1,2.9-5.2,3.8c-2.1,0.9-4.4,1.4-7.1,1.4
		c-2.5,0-4.9-0.4-7.1-1.3c-2.2-0.8-4-2-5.6-3.5c-1.6-1.5-2.8-3.3-3.7-5.5c-0.9-2.1-1.4-4.5-1.4-7.2c0-2.6,0.4-5,1.3-7.1
		c0.9-2.1,2.1-4,3.7-5.5c1.6-1.5,3.4-2.7,5.6-3.5c2.1-0.8,4.5-1.3,7-1.3c2.3,0,4.6,0.5,6.9,1.4c2.3,0.9,4.1,2.3,5.4,4L183.1,130.7z"
		/>
	<path class="st0" d="M200.6,127.4c0.8-1.6,2.1-3,4-4.2c1.9-1.2,4-1.7,6.4-1.7c2.1,0,4,0.4,5.5,1.1c1.5,0.7,2.8,1.7,3.8,2.9
		c1,1.2,1.8,2.6,2.3,4.2c0.5,1.6,0.7,3.4,0.7,5.2v20.4h-6.5v-18.2c0-1.3-0.1-2.6-0.3-3.8c-0.2-1.2-0.6-2.3-1.1-3.2
		c-0.6-0.9-1.3-1.7-2.3-2.2c-0.9-0.6-2.2-0.8-3.7-0.8c-2.6,0-4.7,1-6.4,3c-1.7,2-2.5,4.6-2.5,7.9v17.5h-6.5v-52.5h6.5v24.6H200.6z"
		/>
	<path class="st0" d="M272.2,134c0-2.5-0.7-4.3-2.2-5.5c-1.5-1.2-3.5-1.8-5.9-1.8c-1.9,0-3.6,0.4-5.2,1.1c-1.6,0.7-3,1.6-4.1,2.7
		l-3.5-4.2c1.6-1.5,3.6-2.7,5.9-3.6c2.3-0.9,4.9-1.3,7.5-1.3c2.4,0,4.4,0.3,6.1,1c1.7,0.7,3.2,1.6,4.3,2.7c1.1,1.2,1.9,2.5,2.5,4.1
		c0.6,1.6,0.8,3.3,0.8,5.1v14.4c0,1.1,0,2.3,0.1,3.5c0.1,1.2,0.2,2.2,0.4,3H273c-0.4-1.6-0.6-3.1-0.6-4.7h-0.2
		c-1.2,1.8-2.7,3.1-4.6,4.1c-1.8,1-4,1.5-6.5,1.5c-1.3,0-2.7-0.2-4.1-0.5c-1.4-0.3-2.7-0.9-3.9-1.7c-1.2-0.8-2.1-1.8-2.9-3.1
		c-0.8-1.3-1.1-2.9-1.1-4.8c0-2.5,0.7-4.5,2-5.9c1.3-1.5,3.1-2.6,5.3-3.3c2.2-0.8,4.6-1.3,7.4-1.5c2.7-0.2,5.5-0.3,8.3-0.3V134z
		 M270.6,139.6c-1.6,0-3.3,0.1-5,0.2c-1.7,0.1-3.3,0.4-4.7,0.8c-1.4,0.4-2.6,1-3.5,1.9c-0.9,0.8-1.4,1.9-1.4,3.3
		c0,1,0.2,1.8,0.6,2.4c0.4,0.7,0.9,1.2,1.6,1.6c0.6,0.4,1.4,0.7,2.2,0.9c0.8,0.2,1.6,0.2,2.4,0.2c3.1,0,5.4-0.9,7.1-2.7
		c1.6-1.8,2.5-4.1,2.5-6.9v-1.7H270.6z"/>
	<path class="st0" d="M311.5,130.7c-0.7-1.1-1.7-2-3.1-2.7c-1.4-0.7-2.9-1.1-4.4-1.1c-1.7,0-3.2,0.3-4.6,1c-1.3,0.6-2.4,1.5-3.4,2.6
		c-0.9,1.1-1.6,2.4-2.1,3.8c-0.5,1.4-0.7,2.9-0.7,4.5c0,1.6,0.2,3.1,0.7,4.5c0.5,1.4,1.2,2.7,2.1,3.8c0.9,1.1,2.1,2,3.4,2.6
		c1.3,0.6,2.9,1,4.6,1c1.7,0,3.2-0.3,4.6-1c1.4-0.6,2.5-1.5,3.4-2.6l4.4,4c-1.4,1.6-3.1,2.9-5.2,3.8c-2.1,0.9-4.4,1.4-7.1,1.4
		c-2.5,0-4.9-0.4-7-1.3c-2.2-0.8-4-2-5.6-3.5c-1.6-1.5-2.8-3.3-3.7-5.5c-0.9-2.1-1.4-4.5-1.4-7.2c0-2.6,0.4-5,1.3-7.1
		c0.9-2.1,2.1-4,3.7-5.5c1.6-1.5,3.4-2.7,5.6-3.5c2.2-0.8,4.5-1.3,7-1.3c2.3,0,4.6,0.5,6.9,1.4c2.3,0.9,4.1,2.3,5.5,4L311.5,130.7z"
		/>
	<path class="st0" d="M344.7,130.7c-0.7-1.1-1.7-2-3.1-2.7c-1.4-0.7-2.9-1.1-4.4-1.1c-1.7,0-3.2,0.3-4.5,1c-1.3,0.6-2.4,1.5-3.4,2.6
		c-0.9,1.1-1.6,2.4-2.1,3.8c-0.5,1.4-0.7,2.9-0.7,4.5c0,1.6,0.2,3.1,0.7,4.5c0.5,1.4,1.2,2.7,2.1,3.8c0.9,1.1,2.1,2,3.4,2.6
		c1.3,0.6,2.9,1,4.6,1c1.7,0,3.2-0.3,4.6-1c1.4-0.6,2.5-1.5,3.4-2.6l4.4,4c-1.4,1.6-3.1,2.9-5.2,3.8c-2.1,0.9-4.4,1.4-7.1,1.4
		c-2.5,0-4.9-0.4-7-1.3c-2.2-0.8-4-2-5.6-3.5c-1.6-1.5-2.8-3.3-3.7-5.5c-0.9-2.1-1.4-4.5-1.4-7.2c0-2.6,0.4-5,1.3-7.1
		c0.9-2.1,2.1-4,3.7-5.5c1.6-1.5,3.4-2.7,5.6-3.5c2.2-0.8,4.5-1.3,7-1.3c2.3,0,4.6,0.5,6.9,1.4c2.3,0.9,4.1,2.3,5.5,4L344.7,130.7z"
		/>
	<path class="st0" d="M385.6,138.6v1.1c0,0.4,0,0.7-0.1,1.1h-26.2c0,1.4,0.4,2.7,0.9,3.9c0.6,1.2,1.4,2.3,2.3,3.2
		c1,0.9,2.1,1.6,3.4,2.1c1.3,0.5,2.6,0.8,4.1,0.8c2.2,0,4.1-0.5,5.8-1.5c1.6-1,2.9-2.2,3.8-3.5l4.6,3.7c-1.8,2.3-3.8,4.1-6.2,5.2
		c-2.4,1.1-5,1.7-8,1.7c-2.5,0-4.8-0.4-6.9-1.2c-2.1-0.8-4-2-5.5-3.5c-1.5-1.5-2.7-3.3-3.6-5.5c-0.9-2.1-1.3-4.5-1.3-7.1
		c0-2.5,0.4-4.9,1.3-7.1c0.9-2.2,2.1-4,3.6-5.5c1.5-1.5,3.3-2.7,5.4-3.6c2.1-0.9,4.3-1.3,6.8-1.3c2.4,0,4.6,0.4,6.6,1.2
		c2,0.8,3.6,1.9,5,3.4c1.4,1.5,2.4,3.3,3.2,5.4C385.2,133.5,385.6,135.9,385.6,138.6 M378.9,135.9c0-1.3-0.3-2.5-0.7-3.6
		c-0.4-1.1-1-2.1-1.7-3s-1.7-1.5-2.8-2c-1.1-0.5-2.5-0.7-4-0.7c-1.4,0-2.7,0.2-3.9,0.7c-1.2,0.5-2.3,1.1-3.2,2
		c-0.9,0.8-1.6,1.8-2.2,3c-0.6,1.1-0.9,2.4-1,3.6H378.9z"/>
	<path class="st0" d="M411.8,130.7c-0.7-1.2-1.8-2.2-3.1-3c-1.3-0.8-2.8-1.1-4.5-1.1c-0.7,0-1.5,0.1-2.2,0.2c-0.7,0.2-1.4,0.4-2,0.8
		c-0.6,0.3-1,0.8-1.4,1.3c-0.3,0.5-0.5,1.2-0.5,2c0,1.4,0.6,2.4,1.9,3.1c1.3,0.7,3.1,1.3,5.6,1.8c1.6,0.4,3,0.8,4.4,1.3
		c1.3,0.5,2.5,1.1,3.5,1.9c1,0.8,1.8,1.7,2.3,2.7c0.6,1.1,0.8,2.3,0.8,3.8c0,1.9-0.4,3.6-1.1,4.9c-0.7,1.3-1.7,2.4-3,3.3
		c-1.2,0.9-2.6,1.5-4.2,1.8c-1.6,0.4-3.2,0.6-4.9,0.6c-2.5,0-4.9-0.5-7.3-1.5c-2.4-1-4.4-2.5-5.9-4.4l4.7-4c0.9,1.3,2.1,2.4,3.7,3.3
		c1.5,0.9,3.3,1.3,5.1,1.3c0.8,0,1.6-0.1,2.4-0.2c0.8-0.2,1.5-0.4,2.1-0.8c0.6-0.4,1.1-0.9,1.5-1.5c0.4-0.6,0.6-1.4,0.6-2.3
		c0-1.5-0.7-2.7-2.2-3.4c-1.5-0.7-3.6-1.4-6.4-2.1c-1.1-0.3-2.2-0.6-3.4-1c-1.1-0.4-2.2-0.9-3.1-1.6c-0.9-0.7-1.7-1.6-2.3-2.6
		c-0.6-1-0.9-2.3-0.9-3.9c0-1.8,0.4-3.3,1.1-4.5c0.7-1.3,1.7-2.3,2.8-3.1c1.2-0.8,2.5-1.4,4-1.8c1.5-0.4,3-0.6,4.6-0.6
		c2.4,0,4.6,0.5,6.8,1.4c2.2,0.9,3.9,2.3,5.1,4L411.8,130.7z"/>
	<path class="st0" d="M443,130.7c-0.7-1.2-1.8-2.2-3.1-3c-1.3-0.8-2.8-1.1-4.5-1.1c-0.7,0-1.5,0.1-2.2,0.2c-0.7,0.2-1.4,0.4-2,0.8
		c-0.6,0.3-1,0.8-1.4,1.3c-0.3,0.5-0.5,1.2-0.5,2c0,1.4,0.6,2.4,1.9,3.1c1.3,0.7,3.1,1.3,5.6,1.8c1.6,0.4,3,0.8,4.4,1.3
		c1.3,0.5,2.5,1.1,3.5,1.9c1,0.8,1.8,1.7,2.3,2.7c0.6,1.1,0.8,2.3,0.8,3.8c0,1.9-0.4,3.6-1.1,4.9c-0.7,1.3-1.7,2.4-3,3.3
		c-1.2,0.9-2.6,1.5-4.2,1.8c-1.6,0.4-3.2,0.6-4.9,0.6c-2.5,0-4.9-0.5-7.3-1.5c-2.4-1-4.4-2.5-5.9-4.4l4.7-4c0.9,1.3,2.1,2.4,3.6,3.3
		c1.6,0.9,3.3,1.3,5.1,1.3c0.8,0,1.6-0.1,2.4-0.2c0.8-0.2,1.5-0.4,2.1-0.8c0.6-0.4,1.1-0.9,1.5-1.5c0.4-0.6,0.6-1.4,0.6-2.3
		c0-1.5-0.7-2.7-2.2-3.4c-1.5-0.7-3.6-1.4-6.4-2.1c-1.1-0.3-2.2-0.6-3.4-1s-2.2-0.9-3.1-1.6c-0.9-0.7-1.7-1.6-2.3-2.6
		c-0.6-1-0.9-2.3-0.9-3.9c0-1.8,0.4-3.3,1.1-4.5c0.7-1.3,1.7-2.3,2.8-3.1c1.2-0.8,2.5-1.4,4-1.8c1.5-0.4,3-0.6,4.6-0.6
		c2.4,0,4.6,0.5,6.8,1.4c2.2,0.9,3.9,2.3,5.1,4L443,130.7z"/>
	<path class="st0" d="M252.5,14.7c-73.1,0-142.8,27.9-201.8,80.6l0.2,0.2h29.7c15.3-12,31.3-22.3,47.9-30.9c2.2-1.2,4.9,0.5,4.9,3
		v27.8h5.8v-34c0-1.3,0.8-2.5,2-3.1c0,0,0,0,0.1,0c2.3-1,4.8,0.6,4.8,3.1v34h5.8V56.2c0-1.4,0.9-2.7,2.1-3.2
		c9.9-3.9,19.9-7.2,30-9.9c2.2-0.6,4.3,1.1,4.3,3.3v49.2h5.8V43.4c0-1.6,1.1-3,2.7-3.3c0,0,0,0,0.1,0c2.1-0.5,4.1,1.1,4.1,3.3v52.3
		h5.8V41c0-1.7,1.2-3.1,2.8-3.4c9.9-1.6,19.9-2.7,30-3.2c1.9-0.1,3.6,1.5,3.6,3.4v57.8h5.8V37.5c0-1.9,1.5-3.4,3.4-3.4h0.1h0.1
		c1.9,0,3.4,1.5,3.4,3.4v58.1h5.8V37.8c0-1.9,1.6-3.5,3.6-3.4c10.1,0.5,20.1,1.5,30,3.2c1.6,0.3,2.8,1.7,2.8,3.4v54.6h5.8V43.3
		c0-2.2,2-3.8,4.1-3.3c0,0,0,0,0.1,0c1.6,0.3,2.7,1.7,2.7,3.3v52.3h5.8V46.4c0-2.2,2.1-3.9,4.3-3.3c10.1,2.7,20.2,6,30,9.9
		c1.3,0.5,2.1,1.8,2.1,3.2v39.4h5.8v-34c0-2.5,2.6-4.1,4.8-3.1l0.1,0c1.2,0.6,2,1.8,2,3.1v34h5.8V67.8c0-2.5,2.7-4.2,4.9-3
		c16.5,8.6,32.6,18.9,47.9,30.9H454l0.2-0.2C395.3,42.6,325.5,14.7,252.5,14.7"/>
</g>
</svg>
